<svg xmlns="http://www.w3.org/2000/svg" viewBox="0 0 24 24"><defs><linearGradient id="clip-grad" x1="0%" y1="0%" x2="100%" y2="100%"><stop offset="0%" style="stop-color:#FC6753;stop-opacity:1" /><stop offset="100%" style="stop-color:#E53935;stop-opacity:1" /></linearGradient></defs><path fill="url(#clip-grad)" d="M12 2C6.48 2 2 6.48 2 12s4.48 10 10 10 10-4.48 10-10S17.52 2 12 2zm0 18c-4.41 0-8-3.59-8-8s3.59-8 8-8 8 3.59 8 8-3.59 8-8 8zm0-13c-2.76 0-5 2.24-5 5s2.24 5 5 5 5-2.24 5-5-2.24-5-5-5z"/></svg>