<svg xmlns="http://www.w3.org/2000/svg" viewBox="0 0 24 24" fill="none" stroke="currentColor" stroke-width="2" stroke-linecap="round" stroke-linejoin="round"><path d="M12 2C6.48 2 2 6.48 2 12s4.48 10 10 10 10-4.48 10-10S17.52 2 12 2z" fill="#FFD21E"/><path d="M8 12c0-.552.448-1 1-1s1 .448 1 1-0.448 1-1 1-1-.448-1-1zm6 0c0-.552.448-1 1-1s1 .448 1 1-0.448 1-1 1-1-.448-1-1z" fill="#000"/><path d="M9 15c0 1.105.672 2 1.5 2s1.5-.895 1.5-2M15 15c0 1.105.672 2 1.5 2s1.5-.895 1.5-2" stroke="#000" stroke-width="1.5"/></svg>